<?xml version="1.0" encoding="utf-8"?>
<!-- Generator: Adobe Illustrator 20.0.0, SVG Export Plug-In . SVG Version: 6.00 Build 0)  -->
<svg version="1.1" id="Layer_1" xmlns="http://www.w3.org/2000/svg" xmlns:xlink="http://www.w3.org/1999/xlink" x="0px" y="0px"
	 viewBox="0 0 201.4 66.5" style="enable-background:new 0 0 201.4 66.5;" xml:space="preserve">
<style type="text/css">
	.st0{fill:#10121C;}
</style>
<g>
	<path class="st0" d="M0.1,37.3h12.5l0.1,4.9H12c-0.6-2.8-1.7-4.2-3.4-4.2H8.2v13.6h2.3v0.7H2.2v-0.7h2.3V38H4.1
		c-1.7,0-2.9,1.4-3.5,4.2H0L0.1,37.3z"/>
	<polygon class="st0" points="24.4,45 19.4,45 19.4,51.6 21.3,51.6 21.3,52.4 13.8,52.4 13.8,51.6 15.7,51.6 15.7,38 13.8,38 
		13.8,37.3 21.3,37.3 21.3,38 19.4,38 19.4,44.2 24.4,44.2 24.4,38 22.5,38 22.5,37.3 30,37.3 30,38 28.1,38 28.1,51.6 30,51.6 
		30,52.4 22.5,52.4 22.5,51.6 24.4,51.6 	"/>
	<path class="st0" d="M36.8,38v6.4h0.5c1.6,0,2.5-0.9,2.7-2.7h0.7v6.2H40c-0.1-1.8-1-2.8-2.7-2.8h-0.5v6.5h2.6
		c2.3,0,3.7-1.4,4.4-4.2h0.8l-0.3,4.9H31.2v-0.7h1.9V38h-1.9v-0.7h12.6l0.2,4.2h-0.7c-0.5-1.4-1.1-2.4-1.8-2.8
		c-0.7-0.4-1.6-0.7-2.8-0.7H36.8z"/>
	<path class="st0" d="M57.1,37.3l6,8.8v-6.5c0-0.7-0.1-1.1-0.2-1.3c-0.1-0.2-0.5-0.3-1.1-0.3h-0.7v-0.7h4.6V38h-0.5
		c-0.6,0-0.9,0.1-1.1,0.3c-0.1,0.2-0.2,0.5-0.2,1v13.2H63l-8.9-13.2v10.9c0,0.6,0.1,1,0.2,1.2c0.1,0.2,0.5,0.3,1.1,0.3h0.9v0.7h-4.8
		v-0.7h0.6c0.6,0,1-0.1,1.1-0.3s0.2-0.7,0.2-1.6V39.3c0-0.6-0.1-0.9-0.2-1.1c-0.1-0.1-0.4-0.2-0.9-0.2h-0.8v-0.7H57.1z"/>
	<path class="st0" d="M72.2,38v6.4h0.5c1.6,0,2.5-0.9,2.7-2.7h0.7v6.2h-0.7c-0.1-1.8-1-2.8-2.7-2.8h-0.5v6.5h2.6
		c2.3,0,3.7-1.4,4.4-4.2H80l-0.3,4.9H66.6v-0.7h1.9V38h-1.9v-0.7h12.6l0.2,4.2h-0.7c-0.5-1.4-1.1-2.4-1.8-2.8
		c-0.7-0.4-1.6-0.7-2.8-0.7H72.2z"/>
	<path class="st0" d="M94.4,42.1l2.3,5.7l3.2-8.2c0,0,0.1-0.2,0.2-0.5s0.2-0.5,0.2-0.8c0-0.2-0.3-0.4-0.8-0.4h-0.8v-0.7h4.2V38h-0.3
		c-0.6,0-1,0.1-1.1,0.2c-0.1,0.1-0.3,0.5-0.6,1.3l-5.2,13.2H95l-2.5-6.3l-3,6.3h-0.7L82.7,38h-1.6v-0.7h16.7V38h-0.4
		c-0.5,0-0.8,0.1-1,0.2c-0.2,0.1-0.4,0.5-0.7,1.1L94.4,42.1z M86.4,38l4.1,10.3l1.4-2.9L89,38H86.4z M92.8,38l1.2,3.1l1-2
		c0.1-0.3,0.2-0.5,0.2-0.7c0-0.3-0.2-0.4-0.7-0.4C94.5,38,92.8,38,92.8,38z"/>
	<path class="st0" d="M109.2,37.3h7V38h-1.7l3.4,6.4l2.6-5.1c0-0.1,0.1-0.2,0.2-0.4s0.1-0.4,0.1-0.5c0-0.2-0.2-0.3-0.7-0.3h-0.6
		v-0.7h3.8V38c-0.6,0-1,0.1-1.2,0.2c-0.2,0.1-0.5,0.5-0.7,1.1l-3.1,6v6.3h2.3v0.7h-8.3v-0.7h2.3v-6.1l-4.3-7.5h-1.1L109.2,37.3
		L109.2,37.3z"/>
	<path class="st0" d="M123.6,44.8c0-2.3,0.7-4.1,2-5.5s2.9-2.1,4.8-2.1c1.7,0,3.3,0.7,4.6,2c1.4,1.3,2,3.3,2,5.7
		c0,2.3-0.6,4.2-1.9,5.6c-1.3,1.4-2.9,2.1-4.7,2.1c-2,0-3.7-0.7-4.9-2.2C124.3,48.9,123.6,47,123.6,44.8 M132.9,44.9
		c0-2.3,0-3.8-0.1-4.6c-0.1-0.7-0.3-1.3-0.7-1.8c-0.4-0.4-0.9-0.7-1.8-0.7c-0.7,0-1.2,0.2-1.6,0.5c-0.4,0.4-0.7,0.9-0.8,1.7
		c-0.1,0.8-0.2,2.4-0.2,4.7s0,3.8,0.1,4.6c0.1,0.7,0.3,1.3,0.7,1.8c0.4,0.4,1,0.7,1.7,0.7s1.2-0.2,1.6-0.5c0.4-0.4,0.7-0.9,0.8-1.7
		C132.9,48.8,132.9,47.2,132.9,44.9"/>
	<path class="st0" d="M143.8,44.7v6.9h2v0.7h-7.5v-0.7h1.9V38h-1.9v-0.7h7.5c2.4,0,4.1,0.4,5,1.1c0.9,0.7,1.3,1.5,1.3,2.4
		s-0.4,1.7-1.2,2.3s-2,1.1-3.6,1.3l0,0c1.2,0.3,2.1,0.7,2.7,1.2c0.6,0.5,1,1.1,1.1,1.7c0.2,0.6,0.2,1.3,0.2,2.2
		c0,0.8,0.1,1.4,0.2,1.6c0.1,0.2,0.4,0.3,0.7,0.3c0.4,0,0.8-0.1,1.3-0.4v0.9c-0.7,0.4-1.5,0.6-2.4,0.6c-1.2,0-2.1-0.3-2.8-0.9
		c-0.7-0.6-1.1-1.6-1.1-3.2s-0.2-2.5-0.6-3c-0.4-0.5-1-0.7-1.9-0.7C144.7,44.7,143.8,44.7,143.8,44.7z M143.8,38v6h1.4
		c1,0,1.7-0.2,2.1-0.5c0.4-0.4,0.6-1.2,0.6-2.5c0-1.2-0.2-2-0.5-2.4c-0.4-0.3-1-0.5-1.9-0.5L143.8,38L143.8,38z"/>
	<path class="st0" d="M160,38v13.6h1.9v0.7h-7.6v-0.7h2V38h-2v-0.7h7.6V38H160z M163,42.4l6.2,9.2h1.8v0.7h-7.9v-0.7h1.8l-4.8-7.2
		l5-5.1c0.4-0.4,0.6-0.7,0.6-0.9s-0.3-0.4-0.9-0.4h-1v-0.7h5.7V38H169c-0.7,0-1.2,0.1-1.6,0.3c-0.4,0.2-0.9,0.6-1.7,1.4L163,42.4z"
		/>
	<path class="st0" d="M177.1,38v6.4h0.5c1.6,0,2.5-0.9,2.7-2.7h0.7v6.2h-0.7c-0.1-1.8-1-2.8-2.7-2.8h-0.5v6.5h2.6
		c2.3,0,3.7-1.4,4.4-4.2h0.8l-0.3,4.9h-13.1v-0.7h1.9V38h-1.9v-0.7h12.6l0.2,4.2h-0.7c-0.5-1.4-1.1-2.4-1.8-2.8
		c-0.7-0.4-1.6-0.7-2.8-0.7H177.1z"/>
	<path class="st0" d="M191.7,44.7v6.9h2v0.7h-7.5v-0.7h1.9V38h-1.9v-0.7h7.5c2.4,0,4.1,0.4,5,1.1c0.9,0.7,1.3,1.5,1.3,2.4
		s-0.4,1.7-1.2,2.3s-2,1.1-3.6,1.3l0,0c1.2,0.3,2.1,0.7,2.7,1.2c0.6,0.5,1,1.1,1.1,1.7c0.2,0.6,0.2,1.3,0.2,2.2
		c0,0.8,0.1,1.4,0.2,1.6c0.1,0.2,0.4,0.3,0.7,0.3c0.4,0,0.8-0.1,1.3-0.4v0.9c-0.7,0.4-1.5,0.6-2.4,0.6c-1.2,0-2.1-0.3-2.8-0.9
		c-0.7-0.6-1.1-1.6-1.1-3.2c0-1.5-0.2-2.5-0.6-3c-0.4-0.5-1-0.7-1.9-0.7C192.6,44.7,191.7,44.7,191.7,44.7z M191.7,38v6h1.4
		c1,0,1.7-0.2,2.1-0.5c0.4-0.4,0.6-1.2,0.6-2.5c0-1.2-0.2-2-0.5-2.4c-0.4-0.3-1-0.5-1.9-0.5L191.7,38L191.7,38z"/>
	<path class="st0" d="M56.2,61.1L56.2,61.1l2.3,5.3h-0.6l-0.4-0.9h-2.7l-0.3,0.9H54L56.2,61.1z M57.3,65l-0.9-2.3
		c-0.1-0.2-0.2-0.6-0.2-0.6s-0.1,0.4-0.2,0.6L55.1,65H57.3z"/>
	<path class="st0" d="M63.6,61.1h0.6l1.1,3.5c0.1,0.2,0.1,0.6,0.1,0.6s0.1-0.3,0.2-0.6L67,61h0.1l1.4,3.6c0.1,0.2,0.2,0.6,0.2,0.6
		s0.1-0.3,0.1-0.6l1.1-3.5h0.6l-1.7,5.3h-0.1l-1.4-3.7c-0.1-0.2-0.2-0.5-0.2-0.5s-0.1,0.3-0.2,0.5l-1.4,3.7h-0.1L63.6,61.1z"/>
	<path class="st0" d="M74.4,64.7l-2-3.6H73l1.4,2.6c0.1,0.2,0.2,0.5,0.2,0.5s0.1-0.3,0.2-0.5l1.4-2.6H77l-2,3.6v1.7h-0.6V64.7z"/>
	<path class="st0" d="M80.2,62.7c-0.1-0.2-0.4-0.5-0.4-0.5s0,0.4,0,0.6v3.5h-0.5V61h0.1l3.1,3.7c0.1,0.2,0.4,0.5,0.4,0.5
		s0-0.4,0-0.6v-3.5h0.5v5.3h-0.1L80.2,62.7z"/>
	<path class="st0" d="M86.2,61.1h1.3c1.8,0,2.8,1,2.8,2.6s-1.1,2.6-2.8,2.6h-1.3V61.1z M87.5,65.9c1.6,0,2.3-0.9,2.3-2.1
		c0-1.3-0.7-2.1-2.3-2.1h-0.7V66h0.7V65.9z"/>
	<polygon class="st0" points="92.9,61.1 93.4,61.1 93.4,64.1 96.3,64.1 96.3,61.1 96.8,61.1 96.8,66.4 96.3,66.4 96.3,64.6 
		93.4,64.6 93.4,66.4 92.9,66.4 	"/>
	<path class="st0" d="M101.4,61.1L101.4,61.1l2.3,5.3h-0.6l-0.4-0.9H100l-0.3,0.9h-0.5L101.4,61.1z M102.6,65l-0.9-2.3
		c-0.1-0.2-0.2-0.6-0.2-0.6s-0.1,0.4-0.2,0.6l-0.9,2.3H102.6z"/>
	<path class="st0" d="M106.5,61.1L106.5,61.1l1.9,3c0.1,0.2,0.3,0.5,0.3,0.5s0.1-0.3,0.3-0.5l1.8-3h0.1l0.6,5.3h-0.6l-0.4-3.2
		c0-0.3,0-0.8,0-0.8s-0.2,0.4-0.3,0.7l-1.4,2.4h-0.1l-1.4-2.4c-0.2-0.3-0.3-0.8-0.3-0.8s0,0.5,0,0.8l-0.4,3.2h-0.5L106.5,61.1z"/>
	<polygon class="st0" points="117.2,61.1 117.8,61.1 117.8,64.1 120.6,64.1 120.6,61.1 121.1,61.1 121.1,66.4 120.6,66.4 
		120.6,64.6 117.8,64.6 117.8,66.4 117.2,66.4 	"/>
	<path class="st0" d="M123.7,63.8c0-1.6,1.2-2.7,2.7-2.7s2.7,1.1,2.7,2.7s-1.2,2.7-2.7,2.7C124.9,66.5,123.7,65.4,123.7,63.8
		 M128.5,63.8c0-1.3-0.9-2.2-2.1-2.2s-2.1,0.9-2.1,2.2s0.9,2.2,2.1,2.2S128.5,65,128.5,63.8"/>
	<polygon class="st0" points="132.4,61.6 130.8,61.6 130.8,61.1 134.6,61.1 134.6,61.6 133,61.6 133,66.4 132.4,66.4 	"/>
	<polygon class="st0" points="137,61.1 140.2,61.1 140.2,61.6 137.5,61.6 137.5,64.1 139.9,64.1 139.9,64.6 137.5,64.6 137.5,65.9 
		140.3,65.9 140.3,66.4 137,66.4 	"/>
	<polygon class="st0" points="142.8,61.1 143.4,61.1 143.4,65.9 145.9,65.9 145.9,66.4 142.8,66.4 	"/>
	<path class="st0" d="M116.4,10.3c-1.5,0-3.3,0.6-4.8,3c0,0-9.5,14.9-9.6,15c-0.1,0.1-0.2,0.2-0.2,0.4c0,0.1,0.1,0.2,0.2,0.3
		c0.5,0.7,1.4,1.3,2.6,1.3s2.2-0.6,2.8-1.6c0,0,7.5-11.9,8.5-13.5c1.3-2.2,1.8-2.8,3-2.8c0.5,0,0.6-0.3,0.6-0.5
		C119.6,11.3,118.4,10.3,116.4,10.3"/>
	<path class="st0" d="M101,13.3c0.1-0.2,2-3,3.3-5.1c1.2-1.8,2-2.4,3.5-2.7c0.4-0.1,0.8-0.3,0.8-0.7c0-0.8-1.6-2.3-3.6-2.3
		c-0.4,0-0.7-0.2-0.8-0.5c-0.5-1.2-1.8-2.1-3.5-2.1c-1.6,0-2.9,0.9-3.4,2.1c-0.1,0.3-0.4,0.5-0.8,0.5c-2,0-3.6,1.4-3.6,2.3
		c0,0.4,0.3,0.6,0.8,0.7C95,5.8,95.8,6.4,97,8.3c1.3,2,3.2,4.9,3.3,5.1c0.1,0.2,0.2,0.2,0.3,0.2C100.7,13.6,100.8,13.6,101,13.3"/>
	<path class="st0" d="M99.2,15.6c0-0.1-2.8-4.5-3.7-5.8c-1.6-2.5-3.7-3.4-5.6-3.4c-2.6,0-3.5,1.3-3.5,1.9c0,0.2,0.1,0.4,0.5,0.4
		c1.8,0,3,1.1,3.9,2.5s5.3,8.5,5.3,8.6c0.1,0.1,0.2,0.2,0.3,0.2c0.1,0,0.2-0.1,0.3-0.2c0.1-0.1,2.4-3.8,2.4-3.8
		c0-0.1,0.1-0.1,0.1-0.2C99.3,15.7,99.3,15.7,99.2,15.6"/>
	<path class="st0" d="M110.4,11.3c0.9-1.4,2-2.5,3.8-2.5c0.4,0,0.5-0.2,0.5-0.4c0-0.5-0.9-1.9-3.5-1.9c-1.9,0-3.9,0.8-5.6,3.4
		c-0.8,1.3-7.4,11.6-8.7,13.8c-0.1,0.1-0.2,0.3-0.3,0.3c-0.2,0-0.3-0.1-0.4-0.3c-2.8-4.4-6.5-10.3-6.5-10.3c-1.5-2.4-3.3-3-4.8-3
		c-2,0-3.1,1.1-3.1,1.7c0,0.2,0.1,0.5,0.6,0.5c1.2,0,1.7,0.6,3,2.8c1,1.6,8.5,13.5,8.5,13.5c0.6,0.9,1.6,1.6,2.8,1.6
		c1.2,0,2.2-0.6,2.8-1.6C100,27.8,109.5,12.7,110.4,11.3"/>
</g>
</svg>
