<?xml version="1.0" encoding="utf-8"?>
<!-- Generator: Adobe Illustrator 20.0.0, SVG Export Plug-In . SVG Version: 6.00 Build 0)  -->
<svg version="1.1" id="Layer_1" xmlns="http://www.w3.org/2000/svg" xmlns:xlink="http://www.w3.org/1999/xlink" x="0px" y="0px"
	 viewBox="0 0 142.9 47.2" style="enable-background:new 0 0 142.9 47.2;" xml:space="preserve">
<style type="text/css">
	.st0{fill:#0071CE;}
	.st1{fill:#77777A;}
</style>
<g>
	<path class="st0" d="M0.1,26.5h8.8L9,30H8.5c-0.4-2-1.2-3-2.4-3H5.8v9.6h1.6v0.5H1.6v-0.5h1.6V27H2.9c-1.2,0-2.1,1-2.5,3H0
		L0.1,26.5z"/>
	<polygon class="st0" points="17.3,31.9 13.8,31.9 13.8,36.6 15.1,36.6 15.1,37.2 9.8,37.2 9.8,36.6 11.2,36.6 11.2,27 9.8,27 
		9.8,26.5 15.1,26.5 15.1,27 13.8,27 13.8,31.4 17.3,31.4 17.3,27 16,27 16,26.5 21.3,26.5 21.3,27 19.9,27 19.9,36.6 21.3,36.6 
		21.3,37.2 16,37.2 16,36.6 17.3,36.6 	"/>
	<path class="st0" d="M26.1,27v4.5h0.3c1.1,0,1.8-0.6,1.9-1.9h0.5V34h-0.5c-0.1-1.3-0.7-2-1.9-2h-0.3v4.6H28c1.6,0,2.7-1,3.2-3h0.5
		l-0.2,3.5h-9.3v-0.5h1.4V27h-1.4v-0.5h8.9l0.1,3h-0.5c-0.3-1-0.8-1.7-1.2-2c-0.5-0.3-1.2-0.5-2-0.5H26.1z"/>
	<path class="st0" d="M40.5,26.5l4.2,6.3v-4.6c0-0.5,0-0.8-0.1-0.9c-0.1-0.1-0.3-0.2-0.8-0.2h-0.5v-0.5h3.2V27h-0.4
		c-0.4,0-0.7,0.1-0.8,0.2c-0.1,0.1-0.2,0.4-0.2,0.7v9.4h-0.6l-6.3-9.4v7.7c0,0.4,0,0.7,0.1,0.8c0.1,0.1,0.3,0.2,0.7,0.2h0.6v0.5
		h-3.4v-0.5h0.4c0.4,0,0.7-0.1,0.8-0.2c0.1-0.1,0.1-0.5,0.1-1.1v-7.4c0-0.4,0-0.7-0.1-0.8C37.6,27.1,37.4,27,37,27h-0.6v-0.5H40.5z"
		/>
	<path class="st0" d="M51.2,27v4.5h0.3c1.1,0,1.8-0.6,1.9-1.9H54V34h-0.5c-0.1-1.3-0.7-2-1.9-2h-0.3v4.6H53c1.6,0,2.7-1,3.2-3h0.5
		l-0.2,3.5h-9.3v-0.5h1.4V27h-1.4v-0.5h8.9l0.1,3h-0.5c-0.3-1-0.8-1.7-1.2-2c-0.5-0.3-1.2-0.5-2-0.5H51.2z"/>
	<path class="st0" d="M67,29.9l1.6,4.1l2.3-5.8c0,0,0-0.1,0.1-0.3c0.1-0.2,0.1-0.4,0.1-0.6c0-0.2-0.2-0.3-0.5-0.3h-0.5v-0.5h3V27
		h-0.2c-0.4,0-0.7,0-0.8,0.1c-0.1,0.1-0.2,0.4-0.4,0.9l-3.7,9.4h-0.5l-1.8-4.5l-2.2,4.5h-0.5L58.7,27h-1.1v-0.5h11.8V27h-0.3
		c-0.3,0-0.6,0-0.7,0.1c-0.1,0.1-0.3,0.3-0.5,0.7L67,29.9z M61.3,27l2.9,7.3l1-2.1L63.2,27H61.3z M65.8,27l0.9,2.2l0.7-1.4
		c0.1-0.2,0.1-0.4,0.1-0.5c0-0.2-0.2-0.3-0.5-0.3H65.8z"/>
	<path class="st0" d="M77.5,26.5h5V27h-1.2l2.4,4.5l1.8-3.6c0,0,0.1-0.1,0.1-0.3c0.1-0.2,0.1-0.3,0.1-0.3c0-0.2-0.2-0.2-0.5-0.2
		h-0.4v-0.5h2.7V27c-0.4,0-0.7,0.1-0.9,0.2c-0.2,0.1-0.3,0.4-0.5,0.7l-2.2,4.3v4.5h1.6v0.5h-5.9v-0.5h1.6v-4.3l-3-5.3h-0.8V26.5z"/>
	<path class="st0" d="M87.7,31.8c0-1.6,0.5-2.9,1.4-3.9c0.9-1,2.1-1.5,3.4-1.5c1.2,0,2.3,0.5,3.3,1.4c1,1,1.5,2.3,1.5,4.1
		c0,1.7-0.5,3-1.4,4c-0.9,1-2,1.5-3.4,1.5c-1.4,0-2.6-0.5-3.5-1.6C88.2,34.7,87.7,33.4,87.7,31.8 M94.3,31.8c0-1.6,0-2.7-0.1-3.2
		c-0.1-0.5-0.2-0.9-0.5-1.3c-0.3-0.3-0.7-0.5-1.2-0.5c-0.5,0-0.9,0.1-1.2,0.4c-0.3,0.3-0.5,0.7-0.5,1.2c-0.1,0.6-0.1,1.7-0.1,3.3
		c0,1.6,0,2.7,0.1,3.2c0.1,0.5,0.2,0.9,0.5,1.3c0.3,0.3,0.7,0.5,1.2,0.5c0.5,0,0.8-0.1,1.1-0.4c0.3-0.3,0.5-0.7,0.6-1.2
		C94.3,34.6,94.3,33.5,94.3,31.8"/>
	<path class="st0" d="M102,31.7v4.9h1.4v0.5h-5.4v-0.5h1.4V27h-1.4v-0.5h5.4c1.7,0,2.9,0.3,3.5,0.8c0.6,0.5,0.9,1.1,0.9,1.7
		c0,0.6-0.3,1.2-0.9,1.6c-0.6,0.5-1.4,0.7-2.6,0.9v0c0.9,0.2,1.5,0.5,1.9,0.9c0.4,0.4,0.7,0.8,0.8,1.2c0.1,0.4,0.2,1,0.2,1.6
		c0,0.6,0.1,1,0.2,1.1c0.1,0.1,0.3,0.2,0.5,0.2c0.3,0,0.6-0.1,0.9-0.3v0.6c-0.5,0.3-1.1,0.4-1.7,0.4c-0.8,0-1.5-0.2-2-0.6
		c-0.5-0.4-0.8-1.2-0.8-2.3c0-1.1-0.2-1.8-0.4-2.1c-0.2-0.3-0.7-0.5-1.4-0.5H102z M102,27v4.2h1c0.7,0,1.2-0.1,1.5-0.4
		c0.3-0.3,0.4-0.8,0.4-1.8c0-0.9-0.1-1.4-0.4-1.7c-0.3-0.2-0.7-0.4-1.3-0.4H102z"/>
	<path class="st0" d="M113.5,27v9.6h1.4v0.5h-5.4v-0.5h1.4V27h-1.4v-0.5h5.4V27H113.5z M115.7,30.1l4.4,6.5h1.2v0.5h-5.6v-0.5h1.3
		l-3.4-5.1l3.5-3.6c0.3-0.3,0.4-0.5,0.4-0.7c0-0.2-0.2-0.3-0.6-0.3h-0.7v-0.5h4.1V27h-0.4c-0.5,0-0.9,0.1-1.1,0.2
		c-0.3,0.1-0.7,0.5-1.2,1L115.7,30.1z"/>
	<path class="st0" d="M125.7,27v4.5h0.3c1.1,0,1.8-0.6,1.9-1.9h0.5V34h-0.5c-0.1-1.3-0.7-2-1.9-2h-0.3v4.6h1.8c1.6,0,2.7-1,3.2-3
		h0.5l-0.2,3.5h-9.3v-0.5h1.4V27h-1.4v-0.5h8.9l0.1,3h-0.5c-0.3-1-0.8-1.7-1.2-2c-0.5-0.3-1.2-0.5-2-0.5H125.7z"/>
	<path class="st0" d="M136,31.7v4.9h1.4v0.5h-5.4v-0.5h1.4V27h-1.4v-0.5h5.4c1.7,0,2.9,0.3,3.5,0.8c0.6,0.5,0.9,1.1,0.9,1.7
		c0,0.6-0.3,1.2-0.9,1.6c-0.6,0.5-1.4,0.7-2.6,0.9v0c0.9,0.2,1.5,0.5,1.9,0.9c0.4,0.4,0.7,0.8,0.8,1.2c0.1,0.4,0.2,1,0.2,1.6
		c0,0.6,0.1,1,0.2,1.1c0.1,0.1,0.3,0.2,0.5,0.2c0.3,0,0.6-0.1,0.9-0.3v0.6c-0.5,0.3-1.1,0.4-1.7,0.4c-0.8,0-1.5-0.2-2-0.6
		c-0.5-0.4-0.8-1.2-0.8-2.3c0-1.1-0.2-1.8-0.4-2.1c-0.2-0.3-0.7-0.5-1.4-0.5H136z M136,27v4.2h1c0.7,0,1.2-0.1,1.5-0.4
		c0.3-0.3,0.4-0.8,0.4-1.8c0-0.9-0.1-1.4-0.4-1.7c-0.3-0.2-0.7-0.4-1.3-0.4H136z"/>
	<path class="st1" d="M39.8,43.3L39.8,43.3l1.6,3.8h-0.4l-0.3-0.6h-1.9l-0.2,0.6h-0.4L39.8,43.3z M40.7,46.1L40,44.5
		C40,44.3,39.9,44,39.9,44s-0.1,0.3-0.1,0.4l-0.7,1.7H40.7z"/>
	<path class="st1" d="M45.2,43.4h0.4l0.8,2.5c0,0.2,0.1,0.4,0.1,0.4s0.1-0.2,0.1-0.4l1-2.5h0.1l1,2.5c0.1,0.2,0.1,0.4,0.1,0.4
		s0.1-0.2,0.1-0.4l0.8-2.5H50l-1.2,3.8h-0.1l-1-2.7c-0.1-0.2-0.1-0.4-0.1-0.4s-0.1,0.2-0.1,0.4l-1,2.7h-0.1L45.2,43.4z"/>
	<path class="st1" d="M52.8,45.9l-1.4-2.6h0.4l1,1.9c0.1,0.1,0.2,0.4,0.2,0.4s0.1-0.2,0.2-0.4l1-1.9h0.4l-1.4,2.5v1.2h-0.4V45.9z"/>
	<path class="st1" d="M56.9,44.5c-0.1-0.1-0.3-0.3-0.3-0.3s0,0.3,0,0.4v2.5h-0.4v-3.8h0.1l2.2,2.6c0.1,0.1,0.3,0.3,0.3,0.3
		s0-0.3,0-0.4v-2.5h0.4v3.8h-0.1L56.9,44.5z"/>
	<path class="st1" d="M61.2,43.4h0.9c1.2,0,2,0.7,2,1.9c0,1.1-0.8,1.9-2,1.9h-0.9V43.4z M62.1,46.8c1.1,0,1.6-0.6,1.6-1.5
		c0-0.9-0.5-1.5-1.6-1.5h-0.5v3H62.1z"/>
	<polygon class="st1" points="65.9,43.4 66.3,43.4 66.3,45.5 68.3,45.5 68.3,43.4 68.7,43.4 68.7,47.1 68.3,47.1 68.3,45.8 
		66.3,45.8 66.3,47.1 65.9,47.1 	"/>
	<path class="st1" d="M72,43.3L72,43.3l1.6,3.8h-0.4l-0.3-0.6H71l-0.2,0.6h-0.4L72,43.3z M72.8,46.1l-0.7-1.7C72.1,44.3,72,44,72,44
		s-0.1,0.3-0.1,0.4l-0.7,1.7H72.8z"/>
	<path class="st1" d="M75.6,43.3L75.6,43.3l1.3,2.2c0.1,0.2,0.2,0.4,0.2,0.4s0.1-0.2,0.2-0.4l1.3-2.2h0l0.4,3.8h-0.4l-0.3-2.3
		c0-0.2,0-0.6,0-0.6s-0.1,0.3-0.2,0.5l-1,1.7h0l-1-1.7c-0.1-0.2-0.2-0.5-0.2-0.5s0,0.3,0,0.6l-0.3,2.3h-0.4L75.6,43.3z"/>
	<polygon class="st1" points="83.2,43.4 83.6,43.4 83.6,45.5 85.6,45.5 85.6,43.4 86,43.4 86,47.1 85.6,47.1 85.6,45.8 83.6,45.8 
		83.6,47.1 83.2,47.1 	"/>
	<path class="st1" d="M87.7,45.2c0-1.1,0.9-1.9,1.9-1.9c1.1,0,1.9,0.8,1.9,1.9c0,1.1-0.9,1.9-1.9,1.9C88.6,47.2,87.7,46.4,87.7,45.2
		 M91.2,45.2c0-0.9-0.6-1.6-1.5-1.6c-0.9,0-1.5,0.7-1.5,1.6c0,0.9,0.6,1.6,1.5,1.6C90.5,46.8,91.2,46.1,91.2,45.2"/>
	<polygon class="st1" points="94,43.7 92.8,43.7 92.8,43.4 95.5,43.4 95.5,43.7 94.4,43.7 94.4,47.1 94,47.1 	"/>
	<polygon class="st1" points="97.2,43.4 99.5,43.4 99.5,43.7 97.6,43.7 97.6,45.5 99.3,45.5 99.3,45.8 97.6,45.8 97.6,46.8 
		99.5,46.8 99.5,47.1 97.2,47.1 	"/>
	<polygon class="st1" points="101.4,43.4 101.8,43.4 101.8,46.8 103.5,46.8 103.5,47.1 101.4,47.1 	"/>
	<path class="st0" d="M82.6,7.3c-1.1,0-2.3,0.4-3.4,2.2c0,0-6.7,10.6-6.8,10.7c-0.1,0.1-0.1,0.2-0.1,0.3c0,0.1,0.1,0.2,0.1,0.2
		c0.3,0.5,1,0.9,1.9,0.9c0.9,0,1.6-0.5,2-1.1c0,0,5.3-8.4,6-9.6c1-1.5,1.3-2,2.1-2c0.3,0,0.4-0.2,0.4-0.4C84.8,8,84,7.3,82.6,7.3"/>
	<path class="st0" d="M71.6,9.5C71.7,9.4,73,7.3,74,5.9c0.8-1.3,1.4-1.7,2.5-1.9C76.8,3.9,77,3.8,77,3.5c0-0.6-1.2-1.6-2.6-1.6
		c-0.3,0-0.5-0.2-0.6-0.4C73.5,0.6,72.6,0,71.4,0c-1.2,0-2.1,0.6-2.4,1.5c-0.1,0.2-0.3,0.4-0.6,0.4c-1.4,0-2.6,1-2.6,1.6
		c0,0.3,0.2,0.4,0.5,0.5c1.1,0.2,1.7,0.6,2.5,1.9c0.9,1.5,2.2,3.5,2.3,3.6c0.1,0.2,0.2,0.2,0.2,0.2C71.5,9.6,71.5,9.6,71.6,9.5"/>
	<path class="st0" d="M70.4,11.1c0-0.1-2-3.2-2.6-4.1c-1.2-1.8-2.6-2.4-4-2.4c-1.8,0-2.5,0.9-2.5,1.3c0,0.2,0.1,0.3,0.4,0.3
		C63,6.2,63.8,7,64.5,8c0.6,1,3.8,6,3.8,6.1c0.1,0.1,0.1,0.1,0.2,0.1c0.1,0,0.2-0.1,0.2-0.1c0-0.1,1.7-2.7,1.7-2.7
		c0-0.1,0.1-0.1,0.1-0.2C70.5,11.2,70.5,11.1,70.4,11.1"/>
	<path class="st0" d="M78.3,8c0.6-1,1.4-1.8,2.7-1.8c0.3,0,0.4-0.1,0.4-0.3c0-0.4-0.7-1.3-2.5-1.3c-1.4,0-2.8,0.6-4,2.4
		c-0.6,0.9-5.2,8.2-6.2,9.8c0,0.1-0.1,0.2-0.2,0.2c-0.1,0-0.2-0.1-0.3-0.2c-2-3.1-4.6-7.3-4.6-7.3c-1.1-1.7-2.3-2.2-3.4-2.2
		C58.8,7.3,58,8,58,8.5c0,0.2,0.1,0.4,0.4,0.4c0.9,0,1.2,0.4,2.1,2c0.7,1.1,6,9.6,6,9.6c0.4,0.7,1.1,1.1,2,1.1c0.8,0,1.5-0.4,2-1.1
		C71,19.7,77.7,9,78.3,8"/>
</g>
</svg>
